HIERARCHY
ROOT SpineBase
{
  OFFSET 0.000000 0.000000 0.000000
  CHANNELS 6 Xposition Yposition Zposition Zrotation Xrotation Yrotation
  JOINT SpineMid
  {
    OFFSET 0.000000 27.242997 0.000000
    CHANNELS 3 Zrotation Xrotation Yrotation
    JOINT SpineShoulder
    {
      OFFSET -0.035256 20.076142 -0.669254
      CHANNELS 3 Zrotation Xrotation Yrotation
      JOINT Neck
      {
        OFFSET -0.012536 6.624489 -0.486012
        CHANNELS 3 Zrotation Xrotation Yrotation
        JOINT Head
        {
          OFFSET -2.697099 12.213377 -1.312934
          CHANNELS 3 Zrotation Xrotation Yrotation
          End Site
          {
            OFFSET 0 0 0
          }
        }
      }
      JOINT ShoulderLeft
      {
        OFFSET -12.542620 -2.557321 7.411422
        CHANNELS 3 Zrotation Xrotation Yrotation
        JOINT ElbowLeft
        {
          OFFSET -1.307274 -23.772202 2.539732
          CHANNELS 3 Zrotation Xrotation Yrotation
          JOINT WristLeft
          {
            OFFSET -7.073319 -3.817956 -16.902421
            CHANNELS 3 Zrotation Xrotation Yrotation
            JOINT HandLeft
            {
              OFFSET -0.019581 6.491689 -5.800163
              CHANNELS 3 Zrotation Xrotation Yrotation
              JOINT HandTipLeft
              {
                OFFSET -0.334433 -0.671998 -3.865273
                CHANNELS 3 Zrotation Xrotation Yrotation
                End Site
                {
                  OFFSET 0 0 0
                }
              }
              JOINT ThumbLeft
              {
                OFFSET -2.719780 0.521362 -3.836689
                CHANNELS 3 Zrotation Xrotation Yrotation
                End Site
                {
                  OFFSET 0 0 0
                }
              }
            }
          }
        }
      }
      JOINT ShoulderRight
      {
        OFFSET 10.353556 -3.908342 -11.186771
        CHANNELS 3 Zrotation Xrotation Yrotation
        JOINT ElbowRight
        {
          OFFSET 4.235343 -18.557403 -3.779135
          CHANNELS 3 Zrotation Xrotation Yrotation
          JOINT WristRight
          {
            OFFSET -20.075337 6.209976 -7.974296
            CHANNELS 3 Zrotation Xrotation Yrotation
            JOINT HandRight
            {
              OFFSET -6.998579 1.757334 -1.897307
              CHANNELS 3 Zrotation Xrotation Yrotation
              JOINT HandTipRight
              {
                OFFSET -6.114964 1.045019 -2.371586
                CHANNELS 3 Zrotation Xrotation Yrotation
                End Site
                {
                  OFFSET 0 0 0
                }
              }
              JOINT ThumbRight
              {
                OFFSET -1.990299 2.864113 -2.060478
                CHANNELS 3 Zrotation Xrotation Yrotation
                End Site
                {
                  OFFSET 0 0 0
                }
              }
            }
          }
        }
      }
    }
  }
  JOINT HipLeft
  {
    OFFSET -5.258026 -0.137444 1.596278
    CHANNELS 3 Zrotation Xrotation Yrotation
    JOINT KneeLeft
    {
      OFFSET 3.488464 -26.865109 7.647590
      CHANNELS 3 Zrotation Xrotation Yrotation
      JOINT AnkleLeft
      {
        OFFSET 9.577799 -35.079074 11.501498
        CHANNELS 3 Zrotation Xrotation Yrotation
        JOINT FootLeft
        {
          OFFSET -0.017149 -6.975877 -4.165220
          CHANNELS 3 Zrotation Xrotation Yrotation
          End Site
          {
            OFFSET 0 0 0
          }
        }
      }
    }
  }
  JOINT HipRight
  {
    OFFSET 4.969594 1.067252 -8.030151
    CHANNELS 3 Zrotation Xrotation Yrotation
    JOINT KneeRight
    {
      OFFSET 7.750554 -31.789383 7.363270
      CHANNELS 3 Zrotation Xrotation Yrotation
      JOINT AnkleRight
      {
        OFFSET 4.407703 -30.530844 7.996023
        CHANNELS 3 Zrotation Xrotation Yrotation
        JOINT FootRight
        {
          OFFSET -3.849920 -7.466731 2.643399
          CHANNELS 3 Zrotation Xrotation Yrotation
          End Site
          {
            OFFSET 0 0 0
          }
        }
      }
    }
  }
}
MOTION
Frames: 12
Frame Time: 0.033333
16.449602 70.626075 350.135726 -0.000000 0.000000 43.265584 -0.000000 0.000000 -43.265584 -0.000000 0.000000 0.000000 -0.000000 0.000000 0.000000 0.000000 0.000000 0.000000 -0.000000 0.000000 0.000000 -0.000000 0.000000 0.000000 -0.000000 0.000000 0.000000 -0.000000 0.000000 0.000000 0.000000 0.000000 0.000000 0.000000 0.000000 0.000000 -0.000000 0.000000 0.000000 -0.000000 0.000000 0.000000 -0.000000 0.000000 0.000000 -0.000000 0.000000 0.000000 0.000000 0.000000 0.000000 0.000000 0.000000 0.000000 -0.000000 0.000000 -43.265584 -0.000000 0.000000 0.000000 -0.000000 0.000000 0.000000 0.000000 0.000000 0.000000 -0.000000 0.000000 -43.265584 -0.000000 0.000000 0.000000 -0.000000 0.000000 0.000000 0.000000 0.000000 0.000000
16.426987 70.695415 350.168343 0.012791 0.008635 43.363511 -0.015229 0.002505 -43.363511 -0.000000 0.000000 0.000000 -0.000000 0.000000 0.000000 0.000000 0.000000 0.000000 -0.000000 0.000000 0.000000 -0.000000 0.000000 0.000000 -0.000000 0.000000 0.000000 -0.000000 0.000000 0.000000 0.000000 0.000000 0.000000 0.000000 0.000000 0.000000 -0.000000 0.000000 0.000000 -0.000000 0.000000 0.000000 2.084914 -0.612979 -0.165853 -3.882320 1.406464 0.948003 0.000000 0.000000 0.000000 0.000000 0.000000 0.000000 -0.015229 0.002505 -43.363511 -0.000000 0.000000 0.000000 -3.534945 7.079964 2.229845 0.000000 0.000000 0.000000 -0.608458 -0.640524 -43.577351 -0.317368 2.053165 0.310569 0.103750 -3.386769 0.965828 0.000000 0.000000 0.000000
16.415439 70.742448 350.177331 0.036182 0.035828 43.400667 -0.050906 -0.001171 -43.400679 -0.000000 0.000000 0.000000 -0.000000 0.000000 0.000000 0.000000 0.000000 0.000000 -0.000000 0.000000 0.000000 -0.000000 0.000000 0.000000 -0.000000 0.000000 0.000000 -0.000000 0.000000 0.000000 0.000000 0.000000 0.000000 0.000000 0.000000 0.000000 -0.000000 0.000000 0.000000 -0.594513 0.411021 0.579830 4.294861 -1.558966 -0.858913 -7.053915 2.553715 2.009598 0.000000 0.000000 0.000000 0.000000 0.000000 0.000000 -0.050906 -0.001171 -43.400679 -0.000000 0.000000 0.000000 -6.169492 11.951353 4.048846 0.000000 0.000000 0.000000 -1.111994 -1.126111 -43.786488 -0.572006 3.683206 0.568413 0.230521 -6.150496 1.757009 0.000000 0.000000 0.000000
16.414958 70.767173 350.162692 0.070197 0.081643 43.377945 -0.107095 -0.011129 -43.378005 -0.000000 0.000000 0.000000 -1.010067 -0.494632 -0.222505 0.000000 0.000000 0.000000 -0.000000 0.000000 0.000000 -0.000000 0.000000 0.000000 -0.000000 0.000000 0.000000 -0.000000 0.000000 0.000000 0.000000 0.000000 0.000000 0.000000 0.000000 0.000000 0.945385 -0.336897 -0.266296 -1.750647 0.850706 0.958522 5.726837 -2.080036 -1.076447 -9.544819 3.456417 3.146398 0.000000 0.000000 0.000000 0.000000 0.000000 0.000000 -0.107095 -0.011129 -43.378005 -0.000000 0.000000 0.000000 -7.842502 14.933239 5.265579 0.000000 0.000000 0.000000 -1.521295 -1.475113 -43.895699 -0.751068 4.885124 0.768283 0.361526 -8.239689 2.370986 0.000000 0.000000 0.000000
16.425545 70.769590 350.124424 0.114831 0.146087 43.295802 -0.183758 -0.027579 -43.295992 -0.000000 0.000000 0.000000 -1.324842 -0.597065 -0.281743 0.000000 0.000000 0.000000 -0.000000 0.000000 0.000000 -0.000000 0.000000 0.000000 -0.000000 0.000000 0.000000 -0.000000 0.000000 0.000000 0.000000 0.000000 0.000000 0.000000 0.000000 0.000000 1.157697 -0.363003 -0.314426 -2.117711 0.929226 0.997640 6.754818 -2.437038 -1.187874 -11.373482 4.130407 4.328233 0.000000 0.000000 0.000000 0.000000 0.000000 0.000000 -0.183758 -0.027579 -43.295992 -0.000000 0.000000 0.000000 -8.547053 16.311521 5.797145 0.000000 0.000000 0.000000 -1.844125 -1.699812 -43.906860 -0.844101 5.653645 0.905390 0.481473 -9.619197 2.804881 0.000000 0.000000 0.000000
16.447199 70.749699 350.062529 0.170043 0.229114 43.154271 -0.280755 -0.050838 -43.154736 -0.000000 0.000000 0.000000 -1.628701 -0.668657 -0.333099 0.000000 0.000000 0.000000 -0.000000 0.000000 0.000000 -0.000000 0.000000 0.000000 -0.630166 0.042093 -0.562874 0.630549 -0.035898 0.563303 0.000000 0.000000 0.000000 0.000000 0.000000 0.000000 1.317741 -0.345081 -0.342464 -2.382411 0.912890 0.904487 7.410791 -2.636024 -1.208775 -12.549626 4.591657 5.532094 0.000000 0.000000 0.000000 0.000000 0.000000 0.000000 -0.280755 -0.050838 -43.154736 -0.000000 0.000000 0.000000 -8.293635 16.239644 5.621111 0.000000 0.000000 0.000000 -2.085743 -1.807333 -43.820952 -0.843739 5.985114 0.976392 0.579256 -10.268684 3.055714 0.000000 0.000000 0.000000
16.482060 70.708450 349.968241 0.248330 0.344316 42.961839 -0.416385 -0.082730 -42.962886 -0.000000 0.000000 0.000000 -1.996295 -0.735782 -0.391162 0.000000 0.000000 0.000000 -0.000000 0.000000 0.000000 -0.000000 0.000000 0.000000 -0.665692 0.166500 -0.594093 0.667386 -0.159577 0.595990 0.000000 0.000000 0.000000 0.000000 0.000000 0.000000 1.448476 -0.268163 -0.351956 -2.544164 0.629625 0.178611 7.372004 -2.322498 -0.551471 -12.225576 4.651743 6.996776 0.000000 0.000000 0.000000 0.000000 0.000000 0.000000 -0.416385 -0.082730 -42.962886 -0.000000 0.000000 0.000000 -6.290344 12.940396 4.157767 0.000000 0.000000 0.000000 -2.485651 -1.929759 -43.727984 -0.505726 6.727395 1.185373 2.222888 -15.479417 6.221137 0.000000 0.000000 0.000000
16.530806 70.652651 349.852243 0.329606 0.473025 42.725536 -0.563074 -0.123848 -42.727506 -0.000000 0.000000 0.000000 -2.293783 -0.723727 -0.422506 0.000000 0.000000 0.000000 -0.000000 0.000000 0.000000 -0.000000 0.000000 0.000000 0.413179 -1.083289 0.366703 -0.406311 1.085884 -0.358946 0.000000 0.000000 0.000000 0.000000 0.000000 0.000000 1.501295 -0.122227 -0.331125 -2.659041 0.421384 -0.144068 7.670481 -2.309981 -0.346759 -13.200041 4.974340 7.486073 0.000000 0.000000 0.000000 0.000000 0.000000 0.000000 -0.563074 -0.123848 -42.727506 -0.000000 0.000000 0.000000 -1.963982 7.734050 1.236506 0.000000 0.000000 0.000000 -2.323115 -1.479824 -43.370208 -0.180949 4.919902 0.909799 -0.197882 -7.776794 2.010810 0.000000 0.000000 0.000000
16.590486 70.559812 349.714631 0.410451 0.609476 42.366900 -0.713972 -0.173698 -42.370165 -0.000000 0.000000 0.000000 -2.472618 -0.648033 -0.424704 0.000000 0.000000 0.000000 -0.000000 0.000000 0.000000 -0.000000 0.000000 0.000000 -0.882767 1.539866 -0.781629 0.904010 -1.527493 0.805544 0.000000 0.000000 0.000000 0.000000 0.000000 0.000000 1.521908 0.160806 -0.274473 -2.696942 -0.036460 -0.836181 6.960132 -1.919291 0.021901 -13.125835 4.957790 7.289416 0.000000 0.000000 0.000000 0.000000 0.000000 0.000000 -0.713972 -0.173698 -42.370165 -0.000000 0.000000 0.000000 3.825819 -1.370936 -2.252028 0.000000 0.000000 0.000000 -2.359194 -1.330765 -42.969627 -0.244312 3.760037 0.696043 -1.144895 0.419612 -1.877192 0.000000 0.000000 0.000000
16.640618 70.457980 349.587447 0.491752 0.739715 42.015420 -0.025069 -0.212657 -41.995580 0.168613 -0.192900 0.038886 -3.510310 -1.026576 -0.534572 0.000000 0.000000 0.000000 -0.784526 -0.371291 -0.060789 -0.000000 0.000000 0.000000 -1.947964 2.665537 -1.723037 2.029300 -2.604168 1.814492 0.000000 0.000000 0.000000 0.000000 0.000000 0.000000 0.691348 -0.127046 -0.297985 -2.611075 -0.149538 -0.914333 5.947146 -1.827872 -0.615759 -12.052785 4.660806 7.260864 0.000000 0.000000 0.000000 0.000000 0.000000 0.000000 -1.557556 -0.598611 -42.197382 0.262429 0.748382 0.170437 4.767838 -2.436305 -2.776030 0.000000 0.000000 0.000000 -2.558278 -1.530693 -42.647456 -0.497349 3.934327 0.684776 0.009915 -0.513939 -1.020297 0.000000 0.000000 0.000000
16.672621 70.385673 349.481538 0.557610 0.850075 41.740443 -0.048917 -0.236003 -41.719030 0.172523 -0.185828 0.041908 -3.823370 -1.192703 -0.595259 0.000000 0.000000 0.000000 -0.851333 -0.454697 -0.066680 -0.000000 0.000000 0.000000 -1.918933 1.659607 -1.703889 1.968194 -1.600873 1.759186 0.000000 0.000000 0.000000 0.000000 0.000000 0.000000 0.419985 -0.198204 -0.258829 -2.306350 -0.163031 -0.836593 4.787392 -1.745422 -1.420007 -11.718508 4.614370 7.540792 0.000000 0.000000 0.000000 0.000000 0.000000 0.000000 -1.813793 -0.764114 -41.956013 0.283612 0.928685 0.199426 1.264228 0.749746 -0.762035 0.000000 0.000000 0.000000 -2.426057 -1.255115 -42.276047 -0.705526 2.185026 0.323251 -1.759654 12.320709 -7.306694 0.000000 0.000000 0.000000
16.692891 70.303193 349.385248 0.600651 0.936781 41.466281 -0.074967 -0.246599 -41.444416 0.163057 -0.193451 0.042516 -4.001860 -1.310754 -0.635997 0.000000 0.000000 0.000000 -0.871483 -0.507968 -0.068742 -0.000000 0.000000 0.000000 -2.224072 2.949429 -1.966397 2.326843 -2.869073 2.081940 0.000000 0.000000 0.000000 0.000000 0.000000 0.000000 0.266038 -0.261335 -0.235646 -2.275020 -0.223079 -1.237854 4.211458 -1.484386 -1.163266 -13.907522 5.084497 4.882052 0.000000 0.000000 0.000000 0.000000 0.000000 0.000000 -1.960065 -0.924874 -41.692686 0.251559 1.055161 0.206795 0.267678 1.890951 -0.167247 0.000000 0.000000 0.000000 -2.333312 -1.078936 -41.934148 -0.997320 0.869516 0.017089 -1.906568 22.332638 -12.006148 0.000000 0.000000 0.000000
